<?xml version="1.0" encoding="UTF-8"?>
<svg width="64px" height="53px" viewBox="0 0 64 53" version="1.1" xmlns="http://www.w3.org/2000/svg"
    xmlns:xlink="http://www.w3.org/1999/xlink">
    <title>Apulia</title>

    <style>
        path {
            fill: #1154E9;
        }

        @media (prefers-color-scheme: dark) {
            path {
                fill: #FFD110;
            }
        }
    </style>
    <g id="Page-1" stroke="none" stroke-width="1" fill="none" fill-rule="evenodd">
        <g id="Path-2" transform="translate(-0.000110, 0.476513)">
            <path
                d="M4.24257535,0.770025549 L10.8046315,0.770025549 L20.7884208,0 L22.5625049,1.42075136 C23.2826795,2.76273066 23.2826795,3.86249534 22.5625049,4.72004541 C21.9437318,5.45685138 20.77217,6.19056717 19.0478195,6.9211928 C18.8594341,7.00101367 18.562011,7.120662 18.1555499,7.28013777 C16.8961481,8.93891779 16.8961481,10.310389 18.1555499,11.3945515 C19.4149518,12.478714 23.5524834,14.7399862 30.5681449,18.1783682 L40.2548266,22.1358086 L49.4346271,28.7255491 L53.0447283,30.4339898 C53.9603109,30.211373 54.8144361,30.6029502 55.6071039,31.6087211 C56.3997717,32.6144921 56.8620344,33.5804013 56.993892,34.5064488 L62.7725084,39.7102575 C63.5908361,41.5151308 64,43.0456744 64,44.3018882 C64,45.558102 63.2742702,48.096896 61.8228107,51.9182701 L60.8291619,51.1150733 L57.9633581,50.053895 C56.392522,49.1561983 55.6071039,48.0435689 55.6071039,46.7160069 C55.6071039,45.3884448 55.3438952,44.2524757 54.8174779,43.3080996 C54.5510652,41.7831021 53.9601487,40.8022124 53.0447283,40.3654304 C52.1293079,39.9286485 50.217586,39.7102575 47.3095626,39.7102575 L41.4318151,37.1284911 C41.1289743,36.23182 41.2710124,35.7834845 41.8579293,35.7834845 C42.7383047,35.7834845 40.2548266,34.9251985 40.2548266,34.9251985 C40.2548266,34.9251985 36.2116776,34.7257728 35.4273471,36.5258811 C34.9044602,37.7259533 34.3677285,37.7259533 33.817152,36.5258811 L32.4546175,34.9251985 L32.4546175,31.6087211 C32.470011,30.3766053 32.1594473,29.415548 31.5229263,28.7255491 C30.8864054,28.0355502 30.0642986,28.0355502 29.0566061,28.7255491 L29.0566061,29.3139387 L28.2243651,29.3139387 L27.5085942,29.7100936 C27.093432,29.7103799 26.7136047,29.5783283 26.3691123,29.3139387 C26.0246199,29.0495492 25.0686508,27.9312813 23.5012049,25.9591351 L22.5625049,24.5119311 L21.3435924,25.1026185 L19.6039379,23.9362782 C19.9750107,23.3168461 19.9750107,22.7166896 19.6039379,22.1358086 C19.2328651,21.5549276 18.5274703,20.9796118 17.4877537,20.4098613 C17.4356342,19.9568228 17.0282559,19.9568228 16.2656188,20.4098613 C15.5029818,20.8628998 14.2096838,20.8628998 12.385725,20.4098613 L10.3664295,20.9728185 L8.38288266,20.4098613 L6.5630444,20.4098613 L5.21896337,19.0256884 L6.5630444,16.9141816 L4.24257535,16.4324105 L2.45596311,13.9016092 C3.37362221,13.1594485 3.37362221,12.5560654 2.45596311,12.0914598 C1.53830402,11.6268543 0.849614228,10.9923999 0.389893749,10.1880968 C-0.129964583,9.65172933 -0.129964583,9.03297764 0.389893749,8.33184169 C0.909752082,7.63070574 1.59844187,7.43659412 2.45596311,7.74950681 L4.24257535,6.01787073 L3.23575061,4.72004541 L4.24257535,0.770025549 Z"
                id="Path"></path>
        </g>
    </g>
</svg>